<?xml version="1.0" standalone="no"?>
<!DOCTYPE svg PUBLIC "-//W3C//DTD SVG 20010904//EN"
 "http://www.w3.org/TR/2001/REC-SVG-20010904/DTD/svg10.dtd">
<svg version="1.0" xmlns="http://www.w3.org/2000/svg"
 width="2160.000000pt" height="2160.000000pt" viewBox="0 0 2160.000000 2160.000000"
 preserveAspectRatio="xMidYMid meet">
<metadata>
Created by potrace 1.14, written by Peter Selinger 2001-2017
</metadata>
<g transform="translate(0.000000,2160.000000) scale(0.100000,-0.100000)"
fill="#000000" stroke="none">
<path d="M6992 17669 c-1623 -2163 -2949 -3936 -2947 -3939 2 -3 856 -5 1899
-5 1043 0 1896 -2 1896 -4 0 -4 -459 -620 -470 -631 -3 -3 -41 -53 -85 -113
-44 -59 -118 -158 -165 -221 -47 -62 -94 -125 -105 -140 -102 -136 -528 -704
-538 -716 -7 -9 -158 -211 -337 -450 -179 -239 -329 -439 -333 -445 -6 -8
-203 -269 -297 -395 -188 -250 -1006 -1341 -1018 -1358 -9 -12 -116 -154 -237
-316 -121 -161 -229 -305 -240 -320 -53 -72 -467 -623 -478 -636 -7 -9 -47
-63 -90 -120 -43 -58 -144 -193 -225 -301 -81 -108 -156 -208 -167 -223 -11
-15 -153 -203 -315 -419 -162 -216 -304 -405 -315 -420 -11 -15 -58 -78 -105
-140 -47 -63 -94 -126 -105 -141 -11 -16 -35 -47 -52 -69 l-32 -42 2803 -3
2803 -2 1 -3038 c0 -1670 1 -3043 1 -3050 1 -10 157 -12 764 -10 l762 3 0
3045 0 3045 2803 3 c1541 1 2802 4 2802 7 0 4 -523 703 -661 885 -11 14 -63
84 -117 156 -53 72 -107 144 -120 160 -12 16 -72 95 -132 175 l-110 147 -4266
0 c-2346 0 -4267 2 -4269 4 -3 3 92 135 194 268 10 14 226 302 480 640 253
338 469 626 480 640 10 14 334 446 720 960 385 514 709 946 720 960 10 14 420
561 911 1215 490 655 902 1204 915 1220 138 179 1282 1711 1280 1714 -2 1
-859 3 -1904 3 l-1901 0 19 27 c11 14 256 341 545 726 289 385 533 711 543
724 10 13 117 156 238 317 121 161 229 305 240 320 83 111 945 1261 952 1269
4 6 76 101 158 212 83 111 153 201 157 200 4 -1 464 -612 1023 -1357 559 -745
1021 -1362 1028 -1370 7 -8 565 -753 1241 -1655 676 -902 1240 -1653 1252
-1670 l23 -30 -1897 1 c-1043 0 -1900 -1 -1904 -3 -4 -2 1277 -1717 2848
-3811 l2855 -3807 -3193 -5 -3193 -5 1 -750 c1 -412 2 -755 3 -761 1 -9 295
-11 1150 -10 1015 1 1150 -1 1153 -14 2 -8 4 -867 3 -1907 l0 -1893 762 0
c420 0 763 3 764 8 0 4 1 861 1 1905 l1 1897 71 1 c39 0 1301 0 2803 1 l2733
0 -39 54 c-21 29 -48 66 -60 81 -12 15 -310 413 -662 883 -353 470 -650 866
-660 880 -11 14 -146 194 -300 400 -155 206 -290 386 -300 400 -11 14 -92 122
-180 240 -89 118 -170 226 -180 240 -10 14 -38 50 -61 81 -24 31 -51 67 -61
80 -9 13 -225 301 -480 640 -254 339 -470 627 -480 640 -58 78 -1783 2379
-1798 2399 -92 119 -449 599 -449 602 0 3 855 4 1900 4 1328 -1 1899 2 1896
10 -3 7 -1004 1347 -1296 1734 -19 26 -147 196 -180 240 -11 14 -294 392 -630
840 -336 448 -621 828 -633 844 -12 16 -161 214 -330 440 -170 226 -318 423
-329 438 -11 15 -187 249 -390 520 -203 271 -378 504 -388 518 -34 45 -161
215 -180 240 -54 73 -463 617 -473 630 -7 8 -633 843 -1391 1855 -758 1012
-1382 1844 -1387 1849 -4 4 -1335 -1762 -2957 -3925z"/>
</g>
</svg>
